<mxfile host="app.diagrams.net" modified="2024-01-20T00:20:57.118Z" agent="Mozilla/5.0 (Windows NT 10.0; Win64; x64) AppleWebKit/537.36 (KHTML, like Gecko) Chrome/120.0.0.0 Safari/537.36" version="22.1.21" etag="SiceWoktOvh2T7o1M2h7" type="github">
  <diagram name="Sayfa -1" id="eU-fJsf1K0A9oVs6Q9NI">
    <mxGraphModel>
      <root>
        <mxCell id="0" />
        <mxCell id="1" parent="0" />
      </root>
    </mxGraphModel>
  </diagram>
</mxfile>
